<?xml version="1.0" encoding="utf-8"?>
<!-- Generator: Adobe Illustrator 15.0.2, SVG Export Plug-In . SVG Version: 6.00 Build 0)  -->
<!DOCTYPE svg PUBLIC "-//W3C//DTD SVG 1.1//EN" "http://www.w3.org/Graphics/SVG/1.1/DTD/svg11.dtd">
<svg version="1.1" xmlns="http://www.w3.org/2000/svg" xmlns:xlink="http://www.w3.org/1999/xlink" x="0px" y="0px" width="40px"
	 height="40px" viewBox="0 0 40 40" enable-background="new 0 0 40 40" xml:space="preserve">
<g id="phone" display="none">
	<path display="inline" fill="#FFFFFF" d="M26,5H14c-1.104,0-2,0.896-2,2v24c0,1.104,0.896,2,2,2h12c1.104,0,2-0.896,2-2V7
		C28,5.896,27.104,5,26,5z M22,32h-4c-0.552,0-1-0.447-1-1s0.448-1,1-1h4c0.553,0,1,0.447,1,1S22.553,32,22,32z M26,29H14V9h12V29z
		 M22,8h-4V7h4V8z"/>
</g>
<g id="pc" display="none">
	<g display="inline">
		<rect x="19" y="29" fill="#FFFFFF" width="2" height="2"/>
		<rect x="15" y="29" fill="#FFFFFF" width="3" height="2"/>
		<rect x="9" y="29" fill="#FFFFFF" width="2" height="2"/>
		<rect x="12" y="29" fill="#FFFFFF" width="2" height="2"/>
		<rect x="26" y="29" fill="#FFFFFF" width="2" height="2"/>
		<rect x="22" y="29" fill="#FFFFFF" width="3" height="2"/>
		<rect x="29" y="29" fill="#FFFFFF" width="2" height="2"/>
		<g>
			<rect x="9" y="35" fill="#FFFFFF" width="3" height="2"/>
			<rect x="13" y="35" fill="#FFFFFF" width="3" height="2"/>
			<rect x="5" y="35" fill="#FFFFFF" width="3" height="2"/>
			<rect x="32" y="35" fill="#FFFFFF" width="3" height="2"/>
			<rect x="17" y="35" fill="#FFFFFF" width="6" height="2"/>
			<rect x="28" y="35" fill="#FFFFFF" width="3" height="2"/>
			<rect x="24" y="35" fill="#FFFFFF" width="3" height="2"/>
		</g>
		<rect x="15" y="25" fill="#FFFFFF" width="10" height="3"/>
		<path fill="#FFFFFF" d="M34,4H6C4.896,4,4,4.896,4,6v17c0,1.104,0.896,2,2,2h28c1.104,0,2-0.896,2-2V6C36,4.896,35.104,4,34,4z
			 M34,23H6V6h28V23z"/>
		<g>
			<rect x="23" y="32" fill="#FFFFFF" width="2" height="2"/>
			<rect x="18" y="32" fill="#FFFFFF" width="4" height="2"/>
			<rect x="11" y="32" fill="#FFFFFF" width="3" height="2"/>
			<rect x="15" y="32" fill="#FFFFFF" width="2" height="2"/>
			<rect x="26" y="32" fill="#FFFFFF" width="3" height="2"/>
			<rect x="30" y="32" fill="#FFFFFF" width="3" height="2"/>
			<rect x="7" y="32" fill="#FFFFFF" width="3" height="2"/>
		</g>
	</g>
</g>
<g id="tv" display="none">
	<polygon display="inline" fill="#FFFFFF" points="26,33 14,33 12,36 28,36 	"/>
	<path display="inline" fill="#FFFFFF" d="M34,10H6c-1.104,0-2,0.896-2,2v17c0,1.104,0.896,2,2,2h28c1.104,0,2-0.896,2-2V12
		C36,10.896,35.104,10,34,10z M34,29H6V12h28V29z"/>
	<path display="inline" fill="#FFFFFF" d="M24,10h-8c0-2.21,1.79-4,4-4S24,7.79,24,10z"/>
	
		<rect x="21" y="4" transform="matrix(0.7071 -0.7071 0.7071 0.7071 3.7874 19.1431)" display="inline" fill="#FFFFFF" width="7.999" height="2"/>
	
		<rect x="11" y="4" transform="matrix(-0.7071 -0.7071 0.7071 -0.7071 22.0717 19.1418)" display="inline" fill="#FFFFFF" width="7.999" height="2"/>
</g>
<g id="tablet" display="none">
	<path display="inline" fill="#FFFFFF" d="M34,7H6C4.896,7,4,7.896,4,9v22c0,1.104,0.896,2,2,2h28c1.105,0,2-0.896,2-2V9
		C36,7.896,35.105,7,34,7z M22,32h-4c-0.553,0-1-0.447-1-1s0.447-1,1-1h4c0.553,0,1,0.447,1,1S22.553,32,22,32z M34,29H6V9h28V29z"
		/>
</g>
<g id="laptop" display="none">
	<g display="inline">
		<path fill="#FFFFFF" d="M33,4H7C5.896,4,5,4.896,5,6v17c0,1.104,0.896,2,2,2h26c1.104,0,2-0.896,2-2V6C35,4.896,34.104,4,33,4z
			 M33,23H7V6h26V23z"/>
	</g>
	<path display="inline" fill="#FFFFFF" d="M24,27c0,0,0,1-1,1s-5,0-6,0s-1-1-1-1H1c0,1.657,1.343,3,3,3h32c1.657,0,3-1.343,3-3H24z"
		/>
</g>
<g id="movie" display="none">
	<g display="inline">
		<path fill="#FFFFFF" d="M1,6v28h38V6H1z M6,30H3v-3h3V30z M6,24H3v-3h3V24z M6,19H3v-3h3V19z M6,13H3v-3h3V13z M32,31H8V9h24V31z
			 M37,30h-3v-3h3V30z M37,24h-3v-3h3V24z M37,19h-3v-3h3V19z M37,13h-3v-3h3V13z M16,28.283V11.484l11.2,8.399L16,28.283z"/>
	</g>
</g>
<g id="music" display="none">
	<g display="inline">
		<path fill="#FFFFFF" d="M30,3.686L13,9v17.889c0-0.069-0.645-0.119-0.992-0.119c-2.223,0-4.029,1.504-4.029,3.353
			c0,1.852,1.789,3.354,4.012,3.354c2.225,0,4.009-1.503,4.009-3.354V15.149l11-3.589v10.797c0-0.069-0.519-0.117-0.866-0.117
			c-2.229,0-3.972,1.503-3.972,3.354c0,1.849,1.693,3.353,3.922,3.353c2.223,0,3.916-1.504,3.916-3.353V3.709
			C30,3.701,30,3.695,30,3.686z"/>
	</g>
</g>
<g id="image" display="none">
	<g display="inline">
		<g>
			<path fill="#FFFFFF" d="M36,9v22H4V9H36 M39,6H1v28h38V6L39,6z"/>
			<circle fill="#FFFFFF" cx="11.2" cy="14.4" r="2.8"/>
			<polygon fill="#FFFFFF" points="11.201,22.399 5.601,28 16.801,28 			"/>
			<polygon fill="#FFFFFF" points="18.78,28 33.601,28 22.4,14.2 14.99,24.062 			"/>
		</g>
	</g>
</g>
<g id="tv_channels">
	<path fill="#FFFFFF" d="M9,12v21h30V12H9z M37,23c0,4.094-1,7-1,7s-5.938,1-12,1s-12-1-12-1s-1-2.87-1-7c0-5.031,1-8,1-8
		s6.062-1,12-1s12,1,12,1S37,18.906,37,23z"/>
	<g>
		<path fill="#FFFFFF" d="M20.809,27.953h-2.323v-9.055h-2.76v-1.94h7.836v1.94h-2.753V27.953z"/>
		<path fill="#FFFFFF" d="M30.908,16.958h2.354l-3.429,10.995h-2.542l-3.422-10.995h2.354l1.865,6.618
			c0.024,0.084,0.06,0.229,0.103,0.428c0.042,0.202,0.087,0.421,0.135,0.662c0.048,0.24,0.094,0.481,0.139,0.722
			s0.081,0.444,0.105,0.61c0.024-0.166,0.061-0.37,0.105-0.61s0.093-0.479,0.143-0.718s0.099-0.457,0.146-0.657
			c0.048-0.202,0.083-0.346,0.109-0.437L30.908,16.958z"/>
	</g>
	<polygon fill="#FFFFFF" points="7,10 35,10 35,8 5,8 5,28 7,28 	"/>
	<polygon fill="#FFFFFF" points="3,6 31,6 31,4 1,4 1,23 3,23 	"/>
</g>
<g id="webinos_apps" display="none">
	<path display="inline" fill="#FFFFFF" d="M24.73,11.51C16.51,11.985,9.955,18.088,8.584,25.86
		c2.965-6.44,9.224-10.175,15.029-8.554c6.606,1.84,10.126,9.912,7.863,18.027c-0.012,0.039-0.025,0.074-0.037,0.115
		c-1.765,1.309-3.711,2.274-5.745,2.897c0.473-0.773,0.888-1.608,1.224-2.501c2.429-6.438,0.006-13.313-5.41-15.356
		c-4.637-1.751-9.962,0.613-12.924,5.371c3.455-3.484,7.945-4.367,10.664-1.849c3.094,2.861,2.729,9.04-0.819,13.798
		c-0.316,0.424-0.648,0.82-0.992,1.191c-1.468-0.205-2.92-0.582-4.324-1.133c0.96-0.555,1.896-1.278,2.747-2.167
		c3.41-3.549,4.201-8.324,1.765-10.663c-2.085-2.005-5.858-1.573-9.041,0.822c3.063-1.499,5.894-1.173,6.646,0.938
		c0.857,2.395-1.3,6.188-4.817,8.466c-0.355,0.229-0.71,0.434-1.063,0.613c-0.676-0.461-1.333-0.972-1.959-1.53
		C-0.482,27.33-1.176,15.26,5.839,7.389c7.017-7.872,19.086-8.564,26.957-1.549c3.573,3.184,5.668,7.41,6.232,11.814
		C35.613,13.62,30.412,11.184,24.73,11.51z"/>
</g>
<g id="play..." display="none">
	<polygon display="inline" fill="#FFFFFF" points="7,34 7,6 35,20 	"/>
</g>
<g id="add..." display="none">
	<g display="inline">
		<polygon fill="#FFFFFF" points="20,12 12,12 12,4 8,4 8,12 0,12 0,16 8,16 8,24 12,24 12,16 20,16 		"/>
		<g>
			<rect x="24" y="20" fill="#FFFFFF" width="16" height="4"/>
			<rect x="24" y="12" fill="#FFFFFF" width="16" height="4"/>
			<rect x="24" y="28" fill="#FFFFFF" width="16" height="4"/>
			<rect x="16" y="20" fill="#FFFFFF" width="4" height="4"/>
			<rect x="16" y="28" fill="#FFFFFF" width="4" height="4"/>
		</g>
	</g>
</g>
<g id="sync" display="none">
	<g display="inline">
		<path fill="#FFFFFF" d="M33.969,17.775l-2.901,2.902c0.014-0.227,0.04-0.449,0.04-0.678c0-6.075-4.925-11-11-11
			c-1.822,0-3.537,0.45-5.052,1.235l2.384,2.384c0.835-0.303,1.73-0.476,2.668-0.476c4.332,0,7.857,3.524,7.857,7.857
			c0,0.212-0.018,0.42-0.034,0.627l-2.852-2.852l-2.222,2.223l6.667,6.667l6.667-6.667L33.969,17.775z"/>
		<path fill="#FFFFFF" d="M20.107,27.857c-4.332,0-7.857-3.525-7.857-7.857c0-0.082,0.016-0.159,0.018-0.24l2.845,2.844l2.222-2.223
			l-6.667-6.667L4,20.381l2.223,2.223l2.896-2.896C9.116,19.806,9.107,19.902,9.107,20c0,6.075,4.924,11,11,11
			c1.895,0,3.677-0.479,5.232-1.322l-2.368-2.369C22.083,27.658,21.118,27.857,20.107,27.857z"/>
	</g>
</g>
<g id="add" display="none">
	<g display="inline">
		<polygon fill="#FFFFFF" points="27,18 22,18 22,13 18,13 18,18 13,18 13,22 18,22 18,27 22,27 22,22 27,22 		"/>
	</g>
</g>
<g id="remove" display="none">
	<g display="inline">
		<rect x="13" y="18" fill="#FFFFFF" width="14" height="4"/>
	</g>
</g>
<g id="right" display="none">
	<polygon display="inline" fill="#FFFFFF" points="26.999,19 17.999,10 14.999,13 20.999,19 14.999,25 17.999,28 	"/>
</g>
<g id="left" display="none">
	<polygon display="inline" fill="#FFFFFF" points="14.999,19 23.999,28 26.999,25 20.999,19 26.999,13 23.999,10 	"/>
</g>
<g id="down" display="none">
	<polygon display="inline" fill="#FFFFFF" points="21,25 30,16 27,13 21,19 15,13 12,16 	"/>
</g>
<g id="up" display="none">
	<polygon display="inline" fill="#FFFFFF" points="21,25 30,16 27,13 21,19 15,13 12,16 	"/>
</g>
<g id="right_big" display="none">
	<polygon display="inline" fill="#FFFFFF" points="8.999,20 27.998,39 30.998,36 14.999,20 30.998,4 27.998,1 	"/>
</g>
<g id="left_big" display="none">
	<polygon display="inline" fill="#FFFFFF" points="19.999,9.001 0.999,28.001 3.999,31.001 19.999,15.001 35.999,31.001 
		38.999,28.001 	"/>
</g>
<g id="up_big" display="none">
	<polygon display="inline" fill="#FFFFFF" points="19.999,9.001 0.999,28.001 3.999,31.001 19.999,15.001 35.999,31.001 
		38.999,28.001 	"/>
</g>
<g id="down_big" display="none">
	<polygon display="inline" fill="#FFFFFF" points="20,31 39,12 36,9 20,25 4,9 1,12 	"/>
</g>
<g id="next_down" display="none">
	<polygon display="inline" fill="#FFFFFF" points="27.5,16 12.5,16 20,24 	"/>
</g>
<g id="next_up" display="none">
	<polygon display="inline" fill="#FFFFFF" points="12.5,24 27.5,24 20,16 	"/>
</g>
<g id="next_left_1_" display="none">
	<polygon display="inline" fill="#FFFFFF" points="24,27.5 24,12.5 16,20 	"/>
</g>
<g id="next_right" display="none">
	<polygon display="inline" fill="#FFFFFF" points="16,12.5 16,27.5 24,20 	"/>
</g>
<g id="folder" display="none">
	<g display="inline">
		<polygon fill="#FFFFFF" points="30,32 27,19 7,19 11,32 		"/>
		<polygon fill="#FFFFFF" points="29.083,17 32,30.998 32,13 25,13 24,15 11,15 11,17 		"/>
	</g>
</g>
<g id="album" display="none">
	<g display="inline">
		<polygon fill="#FFFFFF" points="30,32 27,19 7,19 11,32 		"/>
		<path fill="#FFFFFF" d="M29.083,17L32,30.421V15h-4.379c0.285,0.656,0.342,1.49,0.369,2H29.083z"/>
		<path fill="#FFFFFF" d="M11.953,17h1.113h2.212c0.123-1,1.327-2.566,2.796-2.566c1.47,0,2.674,1.566,2.797,2.566h4.617
			c-0.13-4-3.401-7.184-7.414-7.184S10.791,13,10.661,17h0.648H11.953z"/>
	</g>
</g>
<g id="search" display="none">
	<path display="inline" fill="#FFFFFF" d="M18,7c-4.418,0-8,3.582-8,8c0,4.419,3.582,8,8,8s8-3.581,8-8C26,10.582,22.418,7,18,7z
		 M18,21c-3.314,0-6-2.686-6-6s2.686-6,6-6c3.314,0,6,2.686,6,6S21.314,21,18,21z"/>
	<polygon display="inline" fill="#FFFFFF" points="29.915,30.111 28.933,32.41 28.067,32.91 25.585,32.611 21.335,25.25 
		25.665,22.75 	"/>
</g>
<g id="Ebene_31" display="none">
	<g display="inline">
		<polyline fill="#FFFFFF" points="12,13 15,13 15,16 12,16 12,13 		"/>
		<rect x="17" y="18" fill="#FFFFFF" width="10" height="3"/>
		<rect x="17" y="13" fill="#FFFFFF" width="10" height="3"/>
		<rect x="17" y="23" fill="#FFFFFF" width="10" height="3"/>
		<rect x="12" y="18" fill="#FFFFFF" width="3" height="3"/>
		<rect x="12" y="23" fill="#FFFFFF" width="3" height="3"/>
	</g>
</g>
<g id="player_next" display="none">
	<g display="inline" opacity="0.75">
		<g>
			<polygon fill="#FFFFFF" points="9,8 9,32 22,20 			"/>
			<rect x="22" y="8" fill="#FFFFFF" width="8" height="24"/>
		</g>
	</g>
</g>
<g id="player_prev" display="none">
	<g display="inline" opacity="0.75">
		<g>
			<polygon fill="#FFFFFF" points="30,32 30,8 17,20 			"/>
			<rect x="9" y="8" fill="#FFFFFF" width="8" height="24"/>
		</g>
	</g>
</g>
<g id="player_bwd" display="none">
	<g display="inline" opacity="0.75">
		<g>
			<polygon fill="#FFFFFF" points="33,32 33,8 20,20 			"/>
		</g>
	</g>
	<g display="inline" opacity="0.75">
		<g>
			<polygon fill="#FFFFFF" points="20,32 20,8 7,20 			"/>
		</g>
	</g>
</g>
<g id="player_fwd" display="none">
	<g display="inline" opacity="0.75">
		<g>
			<polygon fill="#FFFFFF" points="7,8 7,32 20,20 			"/>
		</g>
	</g>
	<g display="inline" opacity="0.75">
		<g>
			<polygon fill="#FFFFFF" points="20,8 20,32 33,20 			"/>
		</g>
	</g>
</g>
<g id="player_HD" display="none">
	<path display="inline" fill="#FFFFFF" d="M17.793,31h-4.65v-9.495H5.665V31H1V9h4.665v8.623h7.478V9h4.65V31z"/>
	<path display="inline" fill="#FFFFFF" d="M39.02,19.79c0,1.855-0.254,3.483-0.76,4.882c-0.508,1.4-1.24,2.569-2.197,3.507
		c-0.959,0.938-2.131,1.643-3.521,2.114C31.152,30.764,29.568,31,27.793,31H22V9h6.439c1.617,0,3.072,0.231,4.373,0.692
		c1.299,0.462,2.408,1.146,3.332,2.054c0.924,0.908,1.633,2.035,2.131,3.379C38.771,16.469,39.02,18.024,39.02,19.79z
		 M34.295,19.909c0-1.224-0.123-2.279-0.369-3.167s-0.602-1.623-1.068-2.204c-0.467-0.582-1.039-1.014-1.717-1.294
		c-0.676-0.281-1.451-0.421-2.322-0.421h-2.152v14.324h1.715c1.965,0,3.443-0.602,4.432-1.806S34.295,22.328,34.295,19.909z"/>
</g>
<g id="player_play" display="none">
	<polygon display="inline" fill="#FFFFFF" points="9,32 9,8 33,20 	"/>
</g>
<g id="player_enter_fullscreen" display="none">
	<g display="inline">
		<polygon fill="#FFFFFF" points="5,32 12,32 5,25 		"/>
		<polygon fill="#FFFFFF" points="28,8 35,15 35,8 		"/>
		<polygon fill="#FFFFFF" points="32,29 13,29 16,32 35,32 35,19 32,16 		"/>
		<polygon fill="#FFFFFF" points="8,11 27,11 24,8 5,8 5,21 8,24 		"/>
	</g>
</g>
<g id="playewr_exit_fullscreen" display="none">
	<g display="inline">
		<g>
			<polygon fill="#FFFFFF" points="32,18 32,29 15,29 15,32 35,32 35,18 			"/>
			<polygon fill="#FFFFFF" points="25,8 5,8 5,22 8,22 8,11 25,11 			"/>
		</g>
		<polygon fill="#FFFFFF" points="28,8 28,15 35,15 		"/>
		<polygon fill="#FFFFFF" points="12,32 12,25 5,25 		"/>
	</g>
</g>
<g id="player_pause" display="none">
	<g display="inline">
		<rect x="9" y="8" fill="#FFFFFF" width="8" height="24"/>
		<rect x="23" y="8" fill="#FFFFFF" width="8" height="24"/>
	</g>
</g>
</svg>
